<svg id="noun-disable-credit-card-2509464" xmlns="http://www.w3.org/2000/svg" width="25.196" height="18.006" viewBox="0 0 25.196 18.006">
  <path id="Path_96446" data-name="Path 96446" d="M12.412,15.954H6.646a.722.722,0,0,1,0-1.444H12.4a.722.722,0,0,1,0,1.444Zm-2.161,2.161a.717.717,0,0,0-.717-.717H6.627a.722.722,0,1,0,0,1.444H9.534a.717.717,0,0,0,.717-.717Z" transform="translate(-3.09 -6.913)" fill="#170a33"/>
  <path id="Path_96447" data-name="Path 96447" d="M21.315,6.67H6.2A3.237,3.237,0,0,0,3,9.9v9.361a3.237,3.237,0,0,0,3.2,3.237H16.857a.722.722,0,1,0,0-1.444H6.2a1.8,1.8,0,0,1-1.8-1.8V12.426H23.118v.911a.722.722,0,0,0,1.444,0V9.9A3.237,3.237,0,0,0,21.315,6.67ZM4.4,10.982V9.9A1.8,1.8,0,0,1,6.2,8.1H21.315a1.8,1.8,0,0,1,1.8,1.793v1.085Z" transform="translate(-3 -6.67)" fill="#170a33"/>
  <path id="Path_96448" data-name="Path 96448" d="M27.3,16.7h0a4.75,4.75,0,1,1-.01-.01Zm-3.46,0a3.411,3.411,0,0,1,1.86.552L20.938,22a3.43,3.43,0,0,1,2.907-5.3Zm0,6.871a3.411,3.411,0,0,1-1.86-.552l4.767-4.739a3.43,3.43,0,0,1-2.907,5.3Z" transform="translate(-3.495 -6.936)" fill="#170a33"/>
</svg>
