<svg xmlns="http://www.w3.org/2000/svg" width="92.19" height="30.007" viewBox="0 0 97.19 24.007">
  <g id="_31a5f8106638ed7389c8b324f139f558" data-name="31a5f8106638ed7389c8b324f139f558" transform="translate(-8.504 -69.589)">
    <path id="Path_96453" data-name="Path 96453" d="M19.844,92.571l-.067.066a5.055,5.055,0,0,1-3.6,1.674,4.774,4.774,0,0,1,0-9.542,5.05,5.05,0,0,1,3.6,1.677l.067.067,1.719-2.079-.046-.056a6.556,6.556,0,0,0-5.253-2.511,7.977,7.977,0,0,0-5.444,2,8.119,8.119,0,0,0,0,11.355,7.947,7.947,0,0,0,5.444,2A6.555,6.555,0,0,0,21.517,94.7l.046-.052-1.719-2.081Zm3.456,4.36h3.037V82.107H23.3Zm14.934-3.223a4.411,4.411,0,0,1-2.243.742c-.981,0-1.425-.518-1.425-1.672V84.912H37.66V82.12H34.566V77.507L31.589,79.1v3.02H29.022v2.792h2.568v8.369c0,2.278,1.35,3.836,3.368,3.878a4.777,4.777,0,0,0,2.694-.68l.031-.021.73-2.859Zm2.514,3.223h3.04V82.107h-3.04Z" transform="translate(0 -3.645)" fill="#1c4882" fill-rule="evenodd"/>
    <path id="Path_96454" data-name="Path 96454" d="M56.459,75.862a14.741,14.741,0,0,0-24.133,0l-.142.2h3.494l.037-.042a11.911,11.911,0,0,1,17.353,0l.04.042H56.6l-.14-.2Z" transform="translate(-10.901)" fill="#cc2131" fill-rule="evenodd"/>
    <path id="Path_96455" data-name="Path 96455" d="M83.123,84.743l-.041.055v7.669l.03.047a5,5,0,0,0,4.172,2.364c2.561,0,3.859-2.158,3.859-6.412,0-3.8-1.438-5.98-3.944-5.98a5.162,5.162,0,0,0-4.075,2.258ZM134.23,95.992v.052h-1.835c-.1-.21-3.844-8.129-3.844-8.129l-2.792,3.914v4.216h-1.733V76.569c.152-.087,1.324-.759,1.733-.99V89.72l.948-1.471s4.249-6.15,4.793-6.934h1.9c-.4.54-3.746,5.141-3.746,5.141s4.146,8.645,4.579,9.537Zm-34.546.362h-.736c-1.493-.086-4.181-.779-4.181-4.637,0-3.427,2.829-4.644,5.478-4.644a7.585,7.585,0,0,1,3.6.842l.287.157V85.958c0-2.344-1.145-3.531-3.408-3.531a7.758,7.758,0,0,0-3.944,1.079c-.116-.262-.516-1.148-.627-1.4A10.238,10.238,0,0,1,100.865,81c3.364,0,5,1.536,5,4.7V96.044h-1.734V93.9l-.336.373a5.854,5.854,0,0,1-4.112,2.085Zm-11.912,0h-.686a5.071,5.071,0,0,1-3.667-1.939l-.337-.393v2.023h-1.73V76.569c.146-.087,1.323-.759,1.73-.99v7.88l.335-.367A5.657,5.657,0,0,1,87.731,81c3.251,0,5.118,2.709,5.118,7.437C92.849,93.09,90.866,96.155,87.772,96.354Zm8.693-4.78c0,2.2,1.141,3.415,3.215,3.415a5.348,5.348,0,0,0,4.419-2.35l.033-.052V89.358l-.1-.056a7.326,7.326,0,0,0-3.9-.886c-2.292,0-3.666,1.181-3.666,3.158Zm15.056-8.5A4.6,4.6,0,0,1,115.455,81c3.268,0,5,2.084,5,6.028v9.019h-1.738V87.4c0-3.355-1.166-4.914-3.688-4.914-2.417,0-3.861,1.839-3.861,4.914v8.646h-1.732V81.315h1.732V83.6Z" transform="translate(-33.536 -2.758)" fill="#1c4882" fill-rule="evenodd"/>
  </g>
</svg>
