<svg xmlns="http://www.w3.org/2000/svg" width="12.81" height="16.013" viewBox="0 0 12.81 16.013">
  <g id="Group_161416" data-name="Group 161416" transform="translate(-657.592 -729.018)">
    <path id="_99780e068729c39d8f9fdc023be03ba8" data-name="99780e068729c39d8f9fdc023be03ba8" d="M1697.6,12.669a1.6,1.6,0,0,0-1.6,1.6V24.411a1.6,1.6,0,0,0,1.6,1.6h6.939a1.6,1.6,0,0,0,1.6-1.6.534.534,0,1,0-1.067,0,.536.536,0,0,1-.534.534H1697.6a.536.536,0,0,1-.534-.534V14.27a.536.536,0,0,1,.534-.534.534.534,0,0,0,0-1.068ZM1708.81,11.6a1.6,1.6,0,0,0-1.6-1.6h-6.939a1.6,1.6,0,0,0-1.6,1.6V21.743a1.6,1.6,0,0,0,1.6,1.6h6.939a1.6,1.6,0,0,0,1.6-1.6Zm-1.067,0V21.743a.536.536,0,0,1-.534.534h-6.939a.535.535,0,0,1-.534-.534V11.6a.535.535,0,0,1,.534-.534h6.939a.536.536,0,0,1,.534.534Z" transform="translate(-1038.408 719.018)" fill="#170a33" fill-rule="evenodd"/>
  </g>
</svg>
