<svg id="Group_96351" data-name="Group 96351" xmlns="http://www.w3.org/2000/svg" width="12.213" height="7.164" viewBox="0 0 12.213 7.164">
  <g id="Group_692" data-name="Group 692" transform="translate(0 0)">
    <path id="Path_355" data-name="Path 355" d="M27.9,37.829A.832.832,0,0,1,28.729,37a.753.753,0,0,1,.581.249l4.7,4.893,4.7-4.893a.8.8,0,0,1,1.161,0,.818.818,0,0,1,.028,1.134l-5.28,5.529a.826.826,0,0,1-1.161.028l-.028-.028-5.308-5.529A.772.772,0,0,1,27.9,37.829Z" transform="translate(-27.9 -37)" fill="#170a33"/>
  </g>
</svg>
