<svg xmlns="http://www.w3.org/2000/svg" width="25.842" height="17.891" viewBox="0 0 25.842 17.891">
  <path id="_3d3a2ebb73a0640a8b84b71c8531d8ed" data-name="3d3a2ebb73a0640a8b84b71c8531d8ed" d="M20.741,9.72,23.17,7.291A.994.994,0,1,1,24.575,8.7l-1.82,1.821a15.734,15.734,0,0,1,5.916,4.844l0,0a.994.994,0,0,1,0,1.1l0,0A15.945,15.945,0,0,1,11.1,22.17L8.672,24.6a.994.994,0,1,1-1.406-1.406l1.82-1.821a15.734,15.734,0,0,1-5.916-4.844l0,0a.994.994,0,0,1,0-1.1l0,0a15.945,15.945,0,0,1,17.572-5.7Zm-.674,3.485L18.612,14.66a2.983,2.983,0,0,1-3.976,3.976l-1.455,1.455a4.972,4.972,0,0,0,6.886-6.886ZM18.661,11.8a4.972,4.972,0,0,0-6.886,6.886L13.23,17.23a2.983,2.983,0,0,1,3.976-3.976L18.661,11.8Z" transform="translate(-3 -7)" fill="#170a33" fill-rule="evenodd"/>
</svg>
