<svg xmlns="http://www.w3.org/2000/svg" width="18.02" height="18.01" viewBox="0 0 18.02 18.01">
  <path id="_50357200162d78bf80491b443a5d90f0" data-name="50357200162d78bf80491b443a5d90f0" d="M17.359,10.722l-3.367.51L10.134,9l3.859-2.228,3.367.51a.563.563,0,1,0,.169-1.112L14.662,5.74l1.055-2.7a.563.563,0,0,0-1.049-.41L13.43,5.8,9.571,8.03V3.575L11.7.914a.563.563,0,1,0-.88-.7L9.008,2.476,7.2.211a.563.563,0,1,0-.88.7l2.129,2.66V8.03L4.586,5.8,3.346,2.631a.563.563,0,0,0-1.049.41l1.055,2.7L.486,6.175A.563.563,0,0,0,.57,7.294a.541.541,0,0,0,.085-.007l3.367-.51L7.883,9l-3.86,2.228-3.367-.51a.563.563,0,1,0-.169,1.113l2.866.434L2.3,14.97a.563.563,0,0,0,1.049.41l1.238-3.17,3.861-2.23v4.456l-2.128,2.66a.563.563,0,0,0,.88.7l1.811-2.265L10.82,17.8a.563.563,0,1,0,.88-.7L9.571,14.435V9.979l3.859,2.228,1.238,3.17a.563.563,0,1,0,1.049-.408l-1.055-2.7,2.867-.434a.563.563,0,1,0-.169-1.113Z" transform="translate(-0.008 0.001)" fill="#170a33"/>
</svg>
