<svg xmlns="http://www.w3.org/2000/svg" width="20" height="20" viewBox="0 0 20 20">
  <g id="Group_161463" data-name="Group 161463" transform="translate(-1463.921 -189.335)">
    <path id="_928d3c69e8bfd577eb95acc95abce029" data-name="928d3c69e8bfd577eb95acc95abce029" d="M12,2A10,10,0,1,1,2,12,10,10,0,0,1,12,2Zm0,1.667A8.333,8.333,0,1,0,20.333,12,8.333,8.333,0,0,0,12,3.667ZM8.4,8.609l.1-.115a.834.834,0,0,1,1.063-.1l.115.1L12,10.822l2.327-2.328a.834.834,0,0,1,1.063-.1l.115.1a.834.834,0,0,1,.1,1.063l-.1.115L13.178,12l2.328,2.327a.834.834,0,0,1,.1,1.063l-.1.115a.834.834,0,0,1-1.063.1l-.115-.1L12,13.178,9.673,15.506a.834.834,0,0,1-1.063.1l-.115-.1a.834.834,0,0,1-.1-1.063l.1-.115L10.822,12,8.494,9.673a.834.834,0,0,1-.1-1.063l.1-.115Z" transform="translate(1461.921 187.335)" fill="red"/>
  </g>
</svg>
