<svg xmlns="http://www.w3.org/2000/svg" width="24.009" height="18.007" viewBox="0 0 24.009 18.007">
  <g id="Group_161881" data-name="Group 161881" transform="translate(22601 -9910)">
    <path id="Path_96707" data-name="Path 96707" d="M31.758,38.007a2.253,2.253,0,0,0,2.251-2.251V22.251A2.253,2.253,0,0,0,31.758,20H12.251A2.253,2.253,0,0,0,10,22.251V35.756a2.253,2.253,0,0,0,2.251,2.251ZM11.5,22.251a.751.751,0,0,1,.75-.75H31.758a.751.751,0,0,1,.75.75v1.5H11.5Zm0,13.505V27.5H32.509v8.253a.751.751,0,0,1-.75.75H12.251A.751.751,0,0,1,11.5,35.756Z" transform="translate(-22611 9890)" fill="#170a33"/>
    <path id="Path_96708" data-name="Path 96708" d="M22.942,55.26l.579.188-.358.493a.375.375,0,0,0,.607.441l.358-.492.358.492a.375.375,0,0,0,.607-.441l-.358-.493.579-.188a.375.375,0,0,0-.232-.714l-.579.188v-.609a.375.375,0,0,0-.75,0v.609l-.579-.188a.375.375,0,1,0-.231.714Z" transform="translate(-22619.875 9866.379)" fill="#170a33"/>
    <path id="Path_96709" data-name="Path 96709" d="M37.942,55.26l.579.188-.358.493a.375.375,0,0,0,.607.441l.358-.492.358.492a.375.375,0,0,0,.607-.441l-.358-.493.579-.188a.375.375,0,0,0-.232-.714l-.579.188v-.609a.375.375,0,0,0-.75,0v.609l-.579-.188a.375.375,0,1,0-.231.714Z" transform="translate(-22630.375 9866.379)" fill="#170a33"/>
    <path id="Path_96710" data-name="Path 96710" d="M52.942,55.26l.579.188-.358.493a.375.375,0,0,0,.607.441l.358-.492.358.492a.375.375,0,0,0,.607-.441l-.358-.493.579-.188a.375.375,0,0,0-.232-.714l-.579.188v-.609a.375.375,0,0,0-.75,0v.609l-.579-.188a.375.375,0,1,0-.231.714Z" transform="translate(-22640.873 9866.379)" fill="#170a33"/>
    <path id="Path_96711" data-name="Path 96711" d="M67.942,55.26l.579.188-.358.493a.375.375,0,0,0,.607.441l.358-.492.358.492a.375.375,0,0,0,.607-.441l-.358-.493.579-.188a.375.375,0,0,0-.232-.714l-.579.188v-.609a.375.375,0,0,0-.75,0v.609l-.579-.188a.375.375,0,1,0-.231.714Z" transform="translate(-22651.371 9866.379)" fill="#170a33"/>
  </g>
</svg>
