<svg xmlns="http://www.w3.org/2000/svg" width="7.164" height="12.213" viewBox="0 0 7.164 12.213">
  <g id="Group_161796" data-name="Group 161796" transform="translate(7.164) rotate(90)">
    <g id="Group_692" data-name="Group 692" transform="translate(0 0)">
      <path id="Path_355" data-name="Path 355" d="M0,6.335a.832.832,0,0,0,.829.829.753.753,0,0,0,.581-.249l4.7-4.893,4.7,4.893a.8.8,0,0,0,1.161,0A.818.818,0,0,0,12,5.782L6.718.252A.826.826,0,0,0,5.557.225L5.529.252.221,5.782A.772.772,0,0,0,0,6.335Z" fill="#170a33"/>
    </g>
  </g>
</svg>
