<svg xmlns="http://www.w3.org/2000/svg" width="74.001" height="24.007" viewBox="0 0 74.001 24.007">
  <g id="Group_161499" data-name="Group 161499" transform="translate(-1405.226 -532.519)">
    <g id="Group_161444" data-name="Group 161444" transform="translate(1405.226 532.519)">
      <path id="Path_96444" data-name="Path 96444" d="M43.306,75.126H37.268l3.774-23.193H47.08ZM32.188,51.933,26.431,67.886,25.75,64.45h0l-2.032-10.43a2.585,2.585,0,0,0-2.864-2.088H11.338l-.112.393a22.589,22.589,0,0,1,6.316,2.651l5.246,20.15H29.08l9.607-23.193h-6.5ZM79.682,75.126h5.544L80.392,51.933H75.539a2.775,2.775,0,0,0-2.787,1.728L63.745,75.126H70.04L71.3,71.681h7.676l.707,3.445Zm-6.644-8.2,3.173-8.679L78,66.922Zm-8.82-9.411.862-4.981a17.429,17.429,0,0,0-5.431-1.011c-3,0-10.112,1.31-10.112,7.678,0,5.992,8.352,6.066,8.352,9.213s-7.491,2.583-9.964.6l-.9,5.208a16.921,16.921,0,0,0,6.816,1.31c4.121,0,10.337-2.134,10.337-7.94,0-6.03-8.427-6.592-8.427-9.213s5.881-2.286,8.465-.862Z" transform="translate(-11.226 -51.519)" fill="#2566af"/>
    </g>
    <path id="Path_96445" data-name="Path 96445" d="M25.751,64.7l-2.032-10.43a2.585,2.585,0,0,0-2.864-2.088H11.338l-.112.393a23.4,23.4,0,0,1,8.962,4.5A18.085,18.085,0,0,1,25.751,64.7Z" transform="translate(1394 480.747)" fill="#e6a540"/>
  </g>
</svg>
